<svg width="500" height="107.66" version="1.1" viewBox="0 0 132.29167 28.485625" xmlns="http://www.w3.org/2000/svg">
 <title>RealizeIt</title>
 <g transform="translate(-53.627 -110.26)">
  <g transform="matrix(.34156 0 0 .34156 91.082 78.962)" stroke-width="2.9277">
   <g fill="#00ab6c" stroke-width="2.9277">
    <path d="m-92.478 152.82h-10.526v21.485h-6.6554v-52.665h15.445q3.6894 0.0723 6.9448 1.049 3.2554 0.97662 5.6788 2.9298 2.4596 1.9532 3.8341 4.9192 1.4107 2.9298 1.4107 6.9086 0 2.5681-0.75959 4.7022-0.72342 2.1341-2.0256 3.8703-1.3021 1.7362-3.1107 3.0745t-3.9788 2.2788l11.177 22.498-0.03617 0.43405h-7.0533zm-10.526-5.498h8.9704q2.2426-0.0362 4.232-0.68725 1.9894-0.68724 3.4724-1.9532 1.5192-1.266 2.3873-3.0745 0.8681-1.8447 0.8681-4.232 0-2.532-0.83193-4.4128-0.83193-1.917-2.3149-3.183-1.483-1.3022-3.5447-1.9532-2.0256-0.65108-4.449-0.68725h-8.7895z"/>
    <path d="m-48.205 175.03q-4.1235 0-7.5959-1.4107-3.4362-1.4107-5.8958-3.9426-2.4596-2.532-3.8341-6.0044-1.3745-3.4724-1.3745-7.5597v-1.5192q0-4.7384 1.5192-8.464 1.5192-3.7618 4.015-6.3299 2.532-2.6043 5.715-3.9788 3.2192-1.3745 6.5831-1.3745 4.232 0 7.3788 1.483 3.183 1.4468 5.2809 4.0511 2.0979 2.5681 3.1107 6.0767 1.049 3.5086 1.049 7.5959v3.0022h-27.96q0.10851 2.6766 1.0128 5.0277 0.94044 2.3511 2.532 4.1235 1.6277 1.7362 3.8703 2.749 2.2426 1.0128 4.9554 1.0128 3.5809 0 6.3661-1.4468 2.7852-1.4468 4.6299-3.8341l4.0873 3.183q-0.97661 1.483-2.4596 2.8575-1.4468 1.3383-3.3639 2.3873t-4.3405 1.6639q-2.4234 0.65107-5.2809 0.65107zm-0.8681-35.086q-2.0256 0-3.8341 0.75958-1.8085 0.72342-3.2554 2.1702-1.4468 1.4107-2.4596 3.5086-0.97661 2.0617-1.3745 4.7745h21.051v-0.50639q-0.10851-1.9532-0.75959-3.8703-0.6149-1.9171-1.8447-3.4362-1.2298-1.5192-3.1107-2.4596-1.8447-0.94044-4.4128-0.94044z"/>
    <path d="m4.6406 174.31q-0.39788-0.75959-0.65107-1.8809-0.21702-1.1575-0.32554-2.3873-1.0128 1.0128-2.2788 1.917-1.2298 0.90427-2.749 1.5915-1.483 0.68724-3.183 1.0851t-3.6171 0.39788q-3.1107 0-5.6426-0.90427-2.4958-0.90427-4.2682-2.4234-1.7362-1.5554-2.7128-3.6532-0.94044-2.1341-0.94044-4.5937 0-3.2192 1.266-5.6426 1.3021-2.4234 3.6533-4.015 2.3511-1.6277 5.6426-2.4234 3.3277-0.79576 7.415-0.79576h7.3065v-3.0745q0-1.7724-0.65107-3.183-0.65107-1.4107-1.8447-2.3873-1.1936-1.0128-2.9298-1.5553-1.7-0.54257-3.8341-0.54257-1.9894 0-3.5809 0.50639-1.5553 0.5064-2.6405 1.3383-1.0851 0.83193-1.7 1.9894-0.57873 1.1213-0.57873 2.3511h-6.7278q0.03617-2.1341 1.0851-4.1958 1.0851-2.0617 3.0745-3.6894 2.0256-1.6639 4.8831-2.6766 2.8937-1.0128 6.5469-1.0128 3.3277 0 6.1852 0.83193 2.8575 0.79576 4.9192 2.4596 2.0979 1.6277 3.2915 4.0873 1.1936 2.4596 1.1936 5.7512v18.194q0 1.9532 0.36171 4.1596 0.36171 2.1702 1.0128 3.7979v0.57874zm-11.828-5.1001q1.9532 0 3.6533-0.50639t3.0745-1.3383q1.4107-0.83193 2.4234-1.8809 1.0128-1.0851 1.5915-2.2426v-7.9214h-6.2214q-5.8597 0-9.115 1.7362-3.2554 1.7362-3.2554 5.4618 0 1.4468 0.47022 2.6766 0.50639 1.2298 1.483 2.1341 0.97661 0.8681 2.4596 1.3745t3.4362 0.50639z"/>
    <path d="m24.39 118.75h20.002v49.771h12.768v5.7873h-32.771v-5.7873h13.311v-43.948h-13.311z"/>
    <path d="m68.808 135.17h20.002v33.349h12.768v5.7873h-32.771v-5.7873h13.311v-27.526h-13.311zm12.443-10.273q0-1.6638 0.97661-2.7852 1.0128-1.1575 3.0383-1.1575 1.9894 0 3.0022 1.1575 1.0128 1.1213 1.0128 2.7852 0 1.6277-1.0128 2.7128-1.0128 1.0851-3.0022 1.0851-2.0256 0-3.0383-1.0851-0.97661-1.0851-0.97661-2.7128z"/>
    <path d="m120.21 168.85h24.922v5.4618h-33.458v-4.9192l23.366-28.683h-23.041v-5.5341h31.83v4.7384z"/>
    <path d="m173.88 175.03q-4.1235 0-7.5959-1.4107-3.4362-1.4107-5.8958-3.9426-2.4596-2.532-3.8341-6.0044t-1.3745-7.5597v-1.5192q0-4.7384 1.5192-8.464 1.5192-3.7618 4.015-6.3299 2.532-2.6043 5.715-3.9788 3.2192-1.3745 6.5831-1.3745 4.232 0 7.3788 1.483 3.183 1.4468 5.2809 4.0511 2.0979 2.5681 3.1107 6.0767 1.049 3.5086 1.049 7.5959v3.0022h-27.96q0.10851 2.6766 1.0128 5.0277 0.94044 2.3511 2.532 4.1235 1.6277 1.7362 3.8703 2.749t4.9554 1.0128q3.5809 0 6.3661-1.4468t4.6299-3.8341l4.0873 3.183q-0.97661 1.483-2.4596 2.8575-1.4468 1.3383-3.3639 2.3873-1.9171 1.049-4.3405 1.6639-2.4234 0.65107-5.2809 0.65107zm-0.8681-35.086q-2.0256 0-3.8341 0.75958-1.8085 0.72342-3.2554 2.1702-1.4468 1.4107-2.4596 3.5086-0.97661 2.0617-1.3745 4.7745h21.051v-0.50639q-0.10852-1.9532-0.75959-3.8703-0.6149-1.9171-1.8447-3.4362t-3.1107-2.4596q-1.8447-0.94044-4.4128-0.94044z"/>
    <path d="m201.01 121.64h31.83v5.8235h-12.624v41.054h12.624v5.7873h-31.83v-5.7873h12.334v-41.054h-12.334z"/>
    <path d="m261.27 125.69v9.4768h14.902v5.1724h-14.902v21.268q0 2.2788 0.57873 3.7618 0.57874 1.483 1.5915 2.3873 1.0128 0.8681 2.3149 1.2298 1.3383 0.36171 2.8213 0.36171 1.0851 0 2.2426-0.10852 1.1575-0.14468 2.2426-0.32553 1.1213-0.18086 2.0617-0.36171 0.97661-0.21703 1.5915-0.36171l0.94044 4.7384q-0.83193 0.50639-2.0256 0.90426-1.1936 0.36171-2.6043 0.61491-1.4107 0.28936-3.0022 0.43405-1.5553 0.14468-3.1107 0.14468-2.6043 0-4.8831-0.72341-2.2426-0.75959-3.9064-2.3511-1.6639-1.6277-2.6405-4.1596-0.94044-2.5681-0.94044-6.1852v-21.268h-10.273v-5.1724h10.273v-9.4768z"/>
    <path d="m83.999 91.633c-10.298 0-18.647 8.3486-18.647 18.647 0 10.298 8.3489 18.647 18.647 18.647 10.299 0 18.647-8.3486 18.647-18.647 0-10.298-8.3481-18.647-18.647-18.647zm-3.4206 28.225-8.2105-8.2102 2.7366-2.7366 5.4739 5.4736 12.315-12.315 2.7366 2.7366z" stroke-width=".77463"/>
   </g>
  </g>
 </g>
</svg>
